<svg xmlns="http://www.w3.org/2000/svg" viewBox="0 0 6860 4000"><g xmlns="http://www.w3.org/2000/svg" transform="matrix(-1 0 0 -1 6860 4000)"><g>	<g>		<defs>			<rect id="SVGID_1_" width="6860" height="4000" />		</defs>		<clipPath id="SVGID_00000129899405185288440490000002144042226624152736_">			<use p6:href="#SVGID_1_" style="overflow:visible;" xmlns:p6="http://www.w3.org/1999/xlink" />		</clipPath>					<linearGradient id="SVGID_00000149360579031011263840000014421293975731279802_" gradientUnits="userSpaceOnUse" x1="3445.1689" y1="2122.5464" x2="2974.1118" y2="-1683.0421">			<stop offset="0" style="stop-color:#000000" />			<stop offset="1" style="stop-color:#0A8778" />		</linearGradient>					<rect style="clip-path:url(#SVGID_00000129899405185288440490000002144042226624152736_);fill:url(#SVGID_00000149360579031011263840000014421293975731279802_);" width="6860" height="4000" />	</g>	<g>		<defs>			<path id="SVGID_00000104675121701256955470000002570043777833777049_" d="M4355.145,2853.387H2504.857     c-166.181,0-302.147,135.965-302.147,302.148V4000h2454.581v-844.465C4657.292,2989.352,4521.326,2853.387,4355.145,2853.387" />		</defs>		<clipPath id="SVGID_00000072973135000545056650000000428878703377251457_">			<use p6:href="#SVGID_00000104675121701256955470000002570043777833777049_" style="overflow:visible;" xmlns:p6="http://www.w3.org/1999/xlink" />		</clipPath>					<linearGradient id="SVGID_00000018239161088392781630000001041253318975856830_" gradientUnits="userSpaceOnUse" x1="3430.0015" y1="4000" x2="3430.0015" y2="2853.387">			<stop offset="0" style="stop-color:#000000" />			<stop offset="1" style="stop-color:#0A8778" />		</linearGradient>					<rect x="2202.711" y="2853.387" style="clip-path:url(#SVGID_00000072973135000545056650000000428878703377251457_);fill:url(#SVGID_00000018239161088392781630000001041253318975856830_);" width="2454.581" height="1146.613" />	</g>	<g>		<defs>			<path id="SVGID_00000071556967968431678560000000846867266415187647_" d="M2504.857,2853.387h1850.288     c166.181,0,302.147,135.965,302.147,302.148V4000h734.236v-844.469c0-570.01-466.372-1036.382-1036.383-1036.382H2504.857     c-570.012,0-1036.384,466.371-1036.384,1036.382V4000h734.237v-844.465C2202.711,2989.352,2338.676,2853.387,2504.857,2853.387" />		</defs>		<clipPath id="SVGID_00000058587183781546891740000010818878660029064368_">			<use p6:href="#SVGID_00000071556967968431678560000000846867266415187647_" style="overflow:visible;" xmlns:p6="http://www.w3.org/1999/xlink" />		</clipPath>					<linearGradient id="SVGID_00000149378187471852426060000012607869838664885920_" gradientUnits="userSpaceOnUse" x1="3440.6611" y1="3856.8999" x2="3409.8894" y2="1555.348">			<stop offset="0" style="stop-color:#000000" />			<stop offset="1" style="stop-color:#0A8778" />		</linearGradient>					<rect x="1468.474" y="2119.149" style="clip-path:url(#SVGID_00000058587183781546891740000010818878660029064368_);fill:url(#SVGID_00000149378187471852426060000012607869838664885920_);" width="3923.055" height="1880.851" />	</g>	<g>		<defs>			<path id="SVGID_00000168819557872960901550000003203648106292507274_" d="M2504.857,2119.149h1850.288     c570.011,0,1036.383,466.371,1036.383,1036.382V4000h734.237v-844.471c0-973.842-796.778-1770.619-1770.62-1770.619H2504.857     c-973.842,0-1770.62,796.777-1770.62,1770.619V4000h734.236v-844.469C1468.474,2585.521,1934.846,2119.149,2504.857,2119.149" />		</defs>		<clipPath id="SVGID_00000025422007127702020390000009098132445440719520_">			<use p6:href="#SVGID_00000168819557872960901550000003203648106292507274_" style="overflow:visible;" xmlns:p6="http://www.w3.org/1999/xlink" />		</clipPath>					<linearGradient id="SVGID_00000039111359732800048310000002910489758573835954_" gradientUnits="userSpaceOnUse" x1="3422.7432" y1="2853.0522" x2="3488.9761" y2="1387.5472">			<stop offset="0" style="stop-color:#000000" />			<stop offset="1" style="stop-color:#0A8778" />		</linearGradient>					<rect x="734.237" y="1384.91" style="clip-path:url(#SVGID_00000025422007127702020390000009098132445440719520_);fill:url(#SVGID_00000039111359732800048310000002910489758573835954_);" width="5391.528" height="2615.09" />	</g>	<g>		<defs>			<path id="SVGID_00000120560797438518830580000011801969997395995069_" d="M2504.857,1384.91h1850.288     c973.842,0,1770.62,796.777,1770.62,1770.619V4000H6860v-844.473v-3.4c-1.852-1376.127-1128.316-2501.457-2504.855-2501.457     H2504.857C1127.185,650.671,0,1777.856,0,3155.527V4000h734.237v-844.471C734.237,2181.688,1531.016,1384.91,2504.857,1384.91" />		</defs>		<clipPath id="SVGID_00000158734134965444107230000014570796517636531887_">			<use p6:href="#SVGID_00000120560797438518830580000011801969997395995069_" style="overflow:visible;" xmlns:p6="http://www.w3.org/1999/xlink" />		</clipPath>					<linearGradient id="SVGID_00000164493786278617140190000007599037601315779231_" gradientUnits="userSpaceOnUse" x1="3414.0522" y1="2691.7886" x2="3531.0059" y2="4.3915">			<stop offset="0" style="stop-color:#000000" />			<stop offset="1" style="stop-color:#0A8778" />		</linearGradient>					<rect y="650.671" style="clip-path:url(#SVGID_00000158734134965444107230000014570796517636531887_);fill:url(#SVGID_00000164493786278617140190000007599037601315779231_);" width="6860" height="3349.329" />	</g>	<g>		<defs>			<path id="SVGID_00000120552354715769060670000001940756136875627453_" d="M2504.857,2216.072h1850.288     c570.011,0,1036.383,466.373,1036.383,1036.384v-96.925c0-570.01-466.372-1036.382-1036.383-1036.382H2504.857     c-570.012,0-1036.384,466.371-1036.384,1036.382v96.925C1468.474,2682.446,1934.846,2216.072,2504.857,2216.072" />		</defs>		<clipPath id="SVGID_00000145040567633853893700000013043035365510732940_">			<use p6:href="#SVGID_00000120552354715769060670000001940756136875627453_" style="overflow:visible;" xmlns:p6="http://www.w3.org/1999/xlink" />		</clipPath>					<linearGradient id="SVGID_00000011721646345135519340000008021065244965975468_" gradientUnits="userSpaceOnUse" x1="1649.9698" y1="2685.8027" x2="5159.3735" y2="2685.8027">			<stop offset="0" style="stop-color:#6E3C1B" />			<stop offset="0.52" style="stop-color:#F9BF3B" />			<stop offset="1" style="stop-color:#6E3C1B" />		</linearGradient>					<rect x="1468.474" y="2119.149" style="clip-path:url(#SVGID_00000145040567633853893700000013043035365510732940_);fill:url(#SVGID_00000011721646345135519340000008021065244965975468_);" width="3923.055" height="1133.307" />	</g>	<g>		<defs>			<path id="SVGID_00000132779586419812296140000015502207252303690922_" d="M2494.275,747.595h1871.452     c1058.352,0,1970.547,650.253,2348.062,1566.626C6366.194,1347.114,5438.052,650.671,4355.145,650.671H2504.857     c-1082.912,0-2011.057,696.449-2358.646,1663.561C523.723,1397.852,1435.921,747.595,2494.275,747.595" />		</defs>		<clipPath id="SVGID_00000103258141783427370400000006229502487475770811_">			<use p6:href="#SVGID_00000132779586419812296140000015502207252303690922_" style="overflow:visible;" xmlns:p6="http://www.w3.org/1999/xlink" />		</clipPath>					<linearGradient id="SVGID_00000093856734518235641270000018307495168909264053_" gradientUnits="userSpaceOnUse" x1="449.43" y1="1482.3793" x2="6324.4438" y2="1482.2985">			<stop offset="0" style="stop-color:#6E3C1B" />			<stop offset="0.52" style="stop-color:#F9BF3B" />			<stop offset="1" style="stop-color:#6E3C1B" />		</linearGradient>					<rect x="146.211" y="650.671" style="clip-path:url(#SVGID_00000103258141783427370400000006229502487475770811_);fill:url(#SVGID_00000093856734518235641270000018307495168909264053_);" width="6567.578" height="1663.561" />	</g></g></g></svg>